<?xml version="1.0" encoding="UTF-8" standalone="no"?>
<!-- Generator: Adobe Illustrator 15.1.0, SVG Export Plug-In . SVG Version: 6.00 Build 0)  -->

<svg
   xmlns:dc="http://purl.org/dc/elements/1.1/"
   xmlns:cc="http://creativecommons.org/ns#"
   xmlns:rdf="http://www.w3.org/1999/02/22-rdf-syntax-ns#"
   xmlns:svg="http://www.w3.org/2000/svg"
   xmlns="http://www.w3.org/2000/svg"
   xmlns:xlink="http://www.w3.org/1999/xlink"
   xmlns:sodipodi="http://sodipodi.sourceforge.net/DTD/sodipodi-0.dtd"
   xmlns:inkscape="http://www.inkscape.org/namespaces/inkscape"
   version="1.1"
   id="Layer_1"
   x="0px"
   y="0px"
   width="50"
   height="48.788418"
   viewBox="0 0 50 48.788418"
   enable-background="new 0 0 512 512"
   xml:space="preserve"
   inkscape:version="0.48.4 r9939"
   sodipodi:docname="github.svg"><metadata
   id="metadata21"><rdf:RDF><cc:Work
       rdf:about=""><dc:format>image/svg+xml</dc:format><dc:type
         rdf:resource="http://purl.org/dc/dcmitype/StillImage" /></cc:Work></rdf:RDF></metadata><defs
   id="defs19">
	

		<defs
   id="defs7">
			<path
   id="SVGID_1_"
   d="m 256,24.784 c -130.933,0 -237.083,106.133 -237.083,237.118 0,104.699 67.907,193.55 162.136,224.93 11.869,2.158 16.194,-5.183 16.194,-11.444 0,-5.625 -0.187,-20.536 -0.328,-40.33 -65.943,14.327 -79.847,-31.77 -79.847,-31.77 -10.79,-27.382 -26.339,-34.652 -26.339,-34.652 -21.518,-14.734 1.646,-14.434 1.646,-14.434 23.809,1.681 36.324,24.428 36.324,24.428 21.129,36.244 55.48,25.737 69.004,19.688 2.131,-15.336 8.251,-25.736 15.026,-31.68 -52.65,-5.962 -107.99,-26.356 -107.99,-117.188 0,-25.843 9.251,-47.034 24.384,-63.591 -2.423,-6.014 -10.551,-30.106 2.344,-62.759 0,0 19.883,-6.368 65.192,24.322 18.909,-5.271 39.216,-7.907 59.354,-7.995 20.139,0.088 40.428,2.724 59.337,7.995 45.292,-30.69 65.175,-24.322 65.175,-24.322 12.912,32.653 4.784,56.745 2.335,62.759 15.168,16.557 24.375,37.748 24.375,63.591 0,91.096 -55.454,111.138 -108.265,117.01 8.5,7.323 16.105,21.758 16.105,43.886 0,31.699 -0.291,57.259 -0.291,65.042 0,6.333 4.289,13.691 16.309,11.374 C 425.21,455.382 493.082,366.567 493.082,261.903 493.083,130.917 386.968,24.784 256,24.784"
   inkscape:connector-curvature="0" />
		</defs>
		<clipPath
   id="SVGID_2_">
			<use
   xlink:href="#SVGID_1_"
   overflow="visible"
   id="use11"
   style="overflow:visible"
   x="0"
   y="0"
   width="512"
   height="512" />
		</clipPath>
		
		
	</defs><sodipodi:namedview
   pagecolor="#ffffff"
   bordercolor="#666666"
   borderopacity="1"
   objecttolerance="10"
   gridtolerance="10"
   guidetolerance="10"
   inkscape:pageopacity="0"
   inkscape:pageshadow="2"
   inkscape:window-width="1280"
   inkscape:window-height="748"
   id="namedview17"
   showgrid="false"
   fit-margin-top="0"
   fit-margin-left="0"
   fit-margin-right="0"
   fit-margin-bottom="0"
   inkscape:zoom="0.99209595"
   inkscape:cx="242.083"
   inkscape:cy="236.21689"
   inkscape:window-x="-8"
   inkscape:window-y="-8"
   inkscape:window-maximized="1"
   inkscape:current-layer="Layer_1" />
<g
   id="g3779"
   transform="matrix(0.10327058,0,0,0.10327058,-1.4372167,-2.0431068)"><path
     inkscape:connector-curvature="0"
     style="fill:#feb41c;fill-opacity:1;stroke:#feb41c;stroke-opacity:1"
     id="path13"
     d="m -344.516,131.907 c 70.587,-80.051 161.366,-138.202 247.572,-199.768 94.936,-67.801 182.646,-145.171 284.577,-202.828 -2.282,-2.963 -4.572,-5.926 -6.863,-8.897 -74.603,95.713 -186.333,153.378 -288.309,214.997 -54.385,32.866 -105.275,70.711 -158.934,104.665 -61.972,39.224 -126.156,74.841 -188.377,113.676 -5.483,3.423 -1.919,11.869 4.36,10.348 110.422,-26.746 206.826,-89.381 307.793,-138.91 103.728,-50.89 213.938,-86.1 318.293,-135.478 -1.901,-3.264 -3.813,-6.519 -5.714,-9.782 -196.77,134.382 -377.045,300.453 -603.479,384.695 2.132,2.769 4.264,5.546 6.395,8.313 57.736,-96.588 166.823,-157.093 254.108,-223.718 94.812,-72.364 173.226,-163.523 268.515,-235.207 11.56,-8.694 23.686,-16.565 35.847,-24.375 15.822,-10.162 18.396,-16.901 14.354,7.005 -4.077,24.101 -18.44,46.07 -31.805,65.988 -30.008,44.735 -71.321,82.182 -110.351,118.85 -88.496,83.146 -179.222,174.12 -253.399,270.373 3.263,1.901 6.518,3.812 9.781,5.713 75.805,-100.303 182.124,-166.99 279.863,-243.538 91.646,-71.79 188.509,-152.176 303.336,-182.318 43.823,-11.506 13.779,41.754 4.775,57.559 -14.257,25.039 -34.644,46.442 -54.773,66.811 C 256.327,-6.747 213.246,22.068 172.81,54.722 62.6,143.741 -61.019,219.855 -198.787,256.931 c 2.132,2.768 4.263,5.545 6.395,8.313 52.332,-87.665 159.756,-124.219 231.254,-193.426 62.953,-60.929 123.485,-131.755 201.43,-174.048 -2.768,-2.131 -5.545,-4.263 -8.313,-6.395 C 187.925,2.823 51.465,42.676 -18.105,134.348 -78.6,214.08 -135.735,312.641 -163.86,409.275 c -1.247,4.28 2.856,7.933 6.96,6.96 39.093,-9.233 64.229,-45.212 85.269,-76.796 C -36.182,286.25 -10.365,227.072 21.536,171.786 61.813,101.995 130.719,59.171 195.682,13.932 c 39.985,-27.851 81.819,-52.828 125.263,-74.876 9.481,-4.696 19.06,-9.171 28.744,-13.435 18.087,-18.37 23.455,-20.634 16.114,-6.792 -3.883,8.685 -8.968,16.849 -14,24.897 C 294.367,35.805 208.373,113.945 131.117,189.007 72.134,246.335 12.629,307.37 -52.899,357.411 c 2.769,2.132 5.546,4.264 8.314,6.395 C -5.44,249.387 116.206,168.311 202.686,90.781 250.322,48.08 294.951,2.125 341.428,-41.814 c 28.789,-27.223 58.789,-53.013 90.381,-76.928 15.832,-11.993 32.539,-22.712 49.432,-33.113 1.857,-1.141 -6.121,31.495 -7.04,34.033 C 434.037,-6.269 327.622,78.912 249.518,163.95 149.089,273.284 15.884,346.612 -89.859,450.525 c -5.333,5.253 2.44,12.426 8.013,8.013 C 19.802,377.887 110.236,284.764 203.403,194.746 251.03,148.738 299.825,103.994 350.83,61.735 c 31.301,-25.94 63.954,-50.147 97.412,-73.213 19.219,-13.249 17.565,-15.752 12.983,11.869 -2.512,15.168 -6.783,29.974 -11.259,44.646 -62.804,205.579 -287.734,310.827 -401.42,483.486 -4.051,6.165 5.634,11.596 9.782,5.714 C 148.585,406.162 269.788,306.025 377.946,194.029 425.6,144.696 469.901,92.505 521.313,46.886 525.152,43.481 621.37,-21.773 621.901,-17.581 625.642,12.154 614.011,43.18 602.186,69.793 556.673,172.184 467.947,255.392 390.248,333.753 279.871,445.077 143.686,526.64 37.49,642.651 c 2.671,2.671 5.343,5.343 8.014,8.014 C 139.016,535.131 258.043,444.67 365.759,343.278 459.872,254.675 532.485,134.755 649.063,73.003 c 22.429,-11.887 23.57,-11.516 18.803,7.217 -4.033,15.858 -11.808,30.584 -19.555,44.868 -14.567,26.834 -34.175,50.935 -53.774,74.178 -39.295,46.601 -84.225,88.319 -127.403,131.25 -105.486,104.886 -178.948,236.49 -278.403,346.718 2.972,2.291 5.935,4.581 8.897,6.863 28.107,-49.44 48.928,-101.808 74.019,-152.681 30.346,-61.521 78.141,-110.971 127.687,-157.403 60.946,-57.126 128.12,-107.504 197.053,-154.502 29.487,-20.103 59.744,-39.074 90.257,-57.568 3.281,-1.99 43.939,-24.923 44.054,-24.481 4.44,16.398 2.574,35.068 0.301,51.554 -14.929,108.352 -94.67,210.991 -157.111,297.242 -94.629,130.71 -225.004,230.306 -325.458,356.206 3.157,1.84 6.314,3.68 9.463,5.51 33.317,-100.87 105.125,-180.019 176.181,-256.39 67.668,-72.728 133.585,-150.169 212.663,-210.867 4.581,-3.529 50.085,-29.85 50.032,-31.593 0.708,23.429 -8.058,47.079 -17.229,68.164 -17.707,40.693 -46.99,76.619 -75.522,110.033 -51.97,60.849 -110.988,115.648 -164.762,174.924 -64.299,70.853 -130.879,145.277 -218.015,188.138 -3.944,1.945 3.379,-50.767 5.324,-59.275 4.892,-21.386 12.675,-42.081 20.608,-62.477 18.122,-46.548 43.107,-90.522 68.747,-133.249 42.144,-70.233 87.205,-139.927 133.727,-207.33 52.235,-75.69 113.554,-154.335 195.646,-199.193 -2.582,-2.583 -5.165,-5.165 -7.747,-7.748 -62.609,106.504 -144.915,204.429 -231.21,292.643 -83.332,85.188 -160.888,179.399 -268.197,235.614 2.769,2.131 5.546,4.263 8.313,6.395 C 170.783,624.3 227.838,497.285 307.473,390.003 380.094,292.167 468.635,207.509 527.946,100.014 531.51,93.54 522.267,88.357 518.164,94.301 447.471,196.728 354.676,274.222 268.646,362.524 232.171,399.962 196.422,437.994 154.562,469.559 134.53,484.664 112.472,496.472 88.379,503.575 50.65,514.701 55.46,453.365 54.806,428.221 49.835,236.334 247.809,135.844 363.891,16.631 c -3.157,-1.84 -6.314,-3.679 -9.463,-5.51 -26.092,96.66 -54.862,192.666 -106.876,279.014 -65.677,109.049 -169.634,180.839 -289.369,219.745 1.831,3.148 3.671,6.306 5.511,9.464 58.107,-47.946 104.47,-108.167 153.017,-165.311 38.057,-44.788 80.13,-86.286 120.628,-128.862 43.869,-46.106 88.684,-92.3 139.636,-130.667 9.632,-7.244 19.803,-13.629 30.229,-19.643 12.392,-7.146 20.166,-18.104 16.362,-1.486 -6.031,26.347 -27.957,50.572 -44.894,70.357 -66.943,78.202 -152.663,136.097 -229.211,203.827 -49.379,43.7 -95.033,93.45 -154.503,123.725 -18.255,9.295 -38.385,13.479 -58.709,10.542 -33.44,-4.829 -13.408,-53.499 -6.253,-69.959 13.541,-31.105 36.73,-58.055 56.692,-85.136 4.334,-5.891 -5.501,-11.524 -9.782,-5.714 -21.73,29.487 -119.195,150.655 -43.673,171.723 75.08,20.943 160.526,-78.521 207.569,-122 57.815,-53.429 121.885,-99.641 180.125,-152.707 41.1,-37.447 115.145,-97.111 115.764,-159.208 0.036,-3.626 -3.652,-6.509 -7.164,-5.457 C 340.844,79.955 267.71,176.509 206.808,240.932 170.581,279.245 133.709,316.604 99.543,356.82 53.977,410.451 10.215,466.348 -44.32,511.33 c -4.413,3.645 0.31,11.153 5.511,9.464 C 77.955,482.852 176.012,415.838 245.679,314.013 306.935,224.472 337.404,117.659 365.343,14.127 366.812,8.705 359.877,4.522 355.88,8.617 281.905,84.608 191.657,142.282 123.264,224.172 53.499,307.698 28.584,408.055 55.941,513.674 c 0.628,2.415 2.972,4.184 5.456,4.157 88.639,-0.885 159.111,-89.258 215.255,-147.304 86.356,-89.283 180.081,-167.344 251.296,-270.513 -3.264,-1.902 -6.519,-3.812 -9.782,-5.713 -61.53,111.527 -154.016,200.466 -229.449,302.097 -76.469,103.011 -129.89,230.529 -153.177,356.357 -0.901,4.892 3.697,8.81 8.314,6.395 103.735,-54.349 181.407,-144.216 261.139,-227.707 89.347,-93.538 176.561,-192.736 242.336,-304.618 2.937,-5.006 -2.839,-10.427 -7.747,-7.748 C 519.465,284.72 440.627,415.908 370.623,528.824 301.283,640.671 206.1,762.033 206.976,900.279 c 0.026,4.661 4.696,6.554 8.517,4.892 126.369,-55.207 210.09,-176.517 303.946,-272.222 75.213,-76.689 191.888,-175.499 188.359,-293.704 -0.133,-4.387 -4.679,-6.916 -8.518,-4.891 -102.4,54.154 -175.994,147.4 -254.674,229.759 -79.131,82.819 -161.003,169.945 -197.628,280.854 -1.707,5.165 5.882,9.985 9.464,5.51 108.335,-135.796 245.945,-244.007 347.054,-386.128 39.932,-56.135 77.149,-114.41 106.628,-176.772 23.137,-48.926 43.982,-106.928 29.31,-161.179 -0.964,-3.573 -5.147,-5.174 -8.313,-3.388 -130.207,73.656 -253.984,160.251 -362,264.076 -42.666,41.011 -79.98,85.958 -107.247,138.617 -26.074,50.36 -45.894,103.223 -74.028,152.681 -3.113,5.483 4.493,11.736 8.897,6.863 C 301.408,569.218 379.725,432.758 491.209,322.592 563.785,250.874 671.908,163.721 683.919,54.891 684.308,51.344 679.992,48.293 676.755,49.434 554.958,92.399 478.277,211.639 392.743,301.205 279.031,420.277 141.678,513.939 37.49,642.651 c -4.492,5.555 2.99,13.488 8.014,8.014 120.46,-131.604 274.069,-227.106 398.396,-355.306 48.997,-50.536 95.802,-103.505 135.177,-161.976 30.929,-45.911 60.292,-102.135 53.11,-159.181 -0.415,-3.272 -3.369,-6.934 -7.163,-5.457 C 510.789,13.118 435.895,119.551 352.519,203.865 248.182,309.369 134.531,406.516 48.546,528.523 c 3.264,1.902 6.519,3.813 9.782,5.714 129.154,-196.159 393.859,-311.534 418.649,-567.729 0.416,-4.246 -5.12,-7.093 -8.517,-4.891 -209.188,136.115 -364.026,334.786 -558.319,488.908 2.671,2.671 5.342,5.342 8.013,8.013 C -19.104,396.866 51.669,345.374 121,291.548 183.557,242.966 239.108,190.271 293.899,133.304 371.544,52.555 483.77,-45.706 496.878,-164.141 c 0.486,-4.422 -5.121,-6.846 -8.518,-4.891 C 369.173,-100.293 280.172,7.104 178.249,97.423 94.254,171.857 -17.637,250.112 -55.499,360.799 c -1.513,4.422 4.343,9.429 8.313,6.395 C 29.831,308.37 99.471,236.333 168.298,168.462 217.402,120.047 265.409,70.334 309.994,17.7 c 27.099,-31.981 57.355,-67.138 71.259,-107.326 1.327,-3.839 -2.998,-8.526 -6.96,-6.961 C 303.512,-68.648 238.877,-29.91 176.577,13.48 128.854,46.718 72.09,81.794 36.252,128.298 c -62.582,81.236 -85.87,206.976 -173.005,267.524 -27.161,18.883 -10.276,-2.856 -2.821,-21.686 11.852,-29.938 26.533,-58.824 41.374,-87.365 C -69.261,231.141 -36.926,175.97 2.024,126.698 71.082,39.333 199.422,4.362 242.893,-105.618 c 1.945,-4.926 -4.352,-8.535 -8.313,-6.395 C 160.33,-71.717 102.32,-5.835 42.559,52.44 c -75.001,73.143 -189.747,115.004 -244.733,207.091 -2.564,4.307 1.637,9.596 6.395,8.313 C -50.254,228.681 68.005,146.084 187.44,57.879 263.829,1.461 376.038,-74.636 381.46,-179.513 c 0.15,-2.821 -2.698,-6.005 -5.661,-5.66 -119.454,14.036 -222.544,96.757 -314.464,168.017 -108.008,83.729 -227.92,158.739 -311.269,269.011 -4.423,5.846 5.403,11.392 9.781,5.713 75.63,-98.137 168.769,-190.234 259,-275.007 56.374,-52.969 143.182,-126.492 139.75,-212.026 -0.168,-4.298 -4.67,-7.031 -8.518,-4.891 -118.85,66.368 -207.745,174.853 -311.994,260.484 -92.202,75.734 -212.105,135.788 -275.068,241.098 -2.397,4.016 1.601,10.101 6.394,8.313 227.514,-84.64 408.47,-250.809 606.186,-385.827 6.067,-4.148 0.876,-12.895 -5.714,-9.782 -100.058,47.353 -206.19,80.334 -305.662,129.022 -104.17,51.006 -203.863,116.658 -317.717,144.234 1.45,3.449 2.909,6.898 4.36,10.348 62.22,-38.844 126.076,-74.965 188.376,-113.677 57.789,-35.908 112.271,-76.468 170.546,-111.687 99.102,-59.885 206.499,-116.746 278.996,-209.745 3.759,-4.838 -0.875,-12.285 -6.863,-8.897 -101.852,57.622 -190.013,134.63 -284.576,202.838 -86.755,62.565 -178.551,120.664 -249.872,201.528 -4.802,5.457 3.175,13.497 8.013,8.013 l 0,0 z"
     clip-path="url(#SVGID_2_)" /><use
     height="512"
     width="512"
     y="0"
     x="0"
     style="fill:none;stroke:#feb41c;stroke-width:10;stroke-miterlimit:10;stroke-opacity:1;overflow:visible"
     id="use15"
     stroke-miterlimit="10"
     overflow="visible"
     xlink:href="#SVGID_1_" /></g>
</svg>