<?xml version="1.0" encoding="utf-8"?>
<!-- Generator: Adobe Illustrator 15.1.0, SVG Export Plug-In . SVG Version: 6.00 Build 0)  -->
<!DOCTYPE svg PUBLIC "-//W3C//DTD SVG 1.1//EN" "http://www.w3.org/Graphics/SVG/1.1/DTD/svg11.dtd">
<svg version="1.1" id="Layer_1" xmlns="http://www.w3.org/2000/svg" xmlns:xlink="http://www.w3.org/1999/xlink" x="0px" y="0px"
	 width="512px" height="512px" viewBox="0 0 512 512" enable-background="new 0 0 512 512" xml:space="preserve">
<g>
	<g>
		<defs>
			<path id="SVGID_1_" d="M256,24.784c-130.933,0-237.083,106.133-237.083,237.118c0,104.699,67.907,193.55,162.136,224.93
				c11.869,2.158,16.194-5.183,16.194-11.444c0-5.625-0.187-20.536-0.328-40.33c-65.943,14.327-79.847-31.77-79.847-31.77
				c-10.79-27.382-26.339-34.652-26.339-34.652c-21.518-14.734,1.646-14.434,1.646-14.434c23.809,1.681,36.324,24.428,36.324,24.428
				c21.129,36.244,55.48,25.737,69.004,19.688c2.131-15.336,8.251-25.736,15.026-31.68c-52.65-5.962-107.99-26.356-107.99-117.188
				c0-25.843,9.251-47.034,24.384-63.591c-2.423-6.014-10.551-30.106,2.344-62.759c0,0,19.883-6.368,65.192,24.322
				c18.909-5.271,39.216-7.907,59.354-7.995c20.139,0.088,40.428,2.724,59.337,7.995c45.292-30.69,65.175-24.322,65.175-24.322
				c12.912,32.653,4.784,56.745,2.335,62.759c15.168,16.557,24.375,37.748,24.375,63.591c0,91.096-55.454,111.138-108.265,117.01
				c8.5,7.323,16.105,21.758,16.105,43.886c0,31.699-0.291,57.259-0.291,65.042c0,6.333,4.289,13.691,16.309,11.374
				c94.113-31.38,161.985-120.195,161.985-224.859C493.083,130.917,386.968,24.784,256,24.784"/>
		</defs>
		<clipPath id="SVGID_2_">
			<use xlink:href="#SVGID_1_"  overflow="visible"/>
		</clipPath>
		<path clip-path="url(#SVGID_2_)" fill="#2B373A" d="M-344.516,131.907C-273.929,51.856-183.15-6.295-96.944-67.861
			c94.936-67.801,182.646-145.171,284.577-202.828c-2.282-2.963-4.572-5.926-6.863-8.897
			C106.167-183.873-5.563-126.208-107.539-64.589C-161.924-31.723-212.814,6.122-266.473,40.076
			C-328.445,79.3-392.629,114.917-454.85,153.752c-5.483,3.423-1.919,11.869,4.36,10.348
			c110.422-26.746,206.826-89.381,307.793-138.91C-38.969-25.7,71.241-60.91,175.596-110.288c-1.901-3.264-3.813-6.519-5.714-9.782
			C-26.888,14.312-207.163,180.383-433.597,264.625c2.132,2.769,4.264,5.546,6.395,8.313
			c57.736-96.588,166.823-157.093,254.108-223.718C-78.282-23.144,0.132-114.303,95.421-185.987
			c11.56-8.694,23.686-16.565,35.847-24.375c15.822-10.162,18.396-16.901,14.354,7.005c-4.077,24.101-18.44,46.07-31.805,65.988
			C83.809-92.634,42.496-55.187,3.466-18.519c-88.496,83.146-179.222,174.12-253.399,270.373c3.263,1.901,6.518,3.812,9.781,5.713
			C-164.347,157.264-58.028,90.577,39.711,14.029c91.646-71.79,188.509-152.176,303.336-182.318
			c43.823-11.506,13.779,41.754,4.775,57.559c-14.257,25.039-34.644,46.442-54.773,66.811
			C256.327-6.747,213.246,22.068,172.81,54.722C62.6,143.741-61.019,219.855-198.787,256.931c2.132,2.768,4.263,5.545,6.395,8.313
			c52.332-87.665,159.756-124.219,231.254-193.426C101.815,10.889,162.347-59.937,240.292-102.23
			c-2.768-2.131-5.545-4.263-8.313-6.395C187.925,2.823,51.465,42.676-18.105,134.348
			c-60.495,79.732-117.63,178.293-145.755,274.927c-1.247,4.28,2.856,7.933,6.96,6.96c39.093-9.233,64.229-45.212,85.269-76.796
			c35.449-53.189,61.266-112.367,93.167-167.653C61.813,101.995,130.719,59.171,195.682,13.932
			c39.985-27.851,81.819-52.828,125.263-74.876c9.481-4.696,19.06-9.171,28.744-13.435c18.087-18.37,23.455-20.634,16.114-6.792
			c-3.883,8.685-8.968,16.849-14,24.897c-57.436,92.079-143.43,170.219-220.686,245.281
			C72.134,246.335,12.629,307.37-52.899,357.411c2.769,2.132,5.546,4.264,8.314,6.395C-5.44,249.387,116.206,168.311,202.686,90.781
			C250.322,48.08,294.951,2.125,341.428-41.814c28.789-27.223,58.789-53.013,90.381-76.928
			c15.832-11.993,32.539-22.712,49.432-33.113c1.857-1.141-6.121,31.495-7.04,34.033C434.037-6.269,327.622,78.912,249.518,163.95
			C149.089,273.284,15.884,346.612-89.859,450.525c-5.333,5.253,2.44,12.426,8.013,8.013
			c101.648-80.651,192.082-173.774,285.249-263.792c47.627-46.008,96.422-90.752,147.427-133.011
			c31.301-25.94,63.954-50.147,97.412-73.213c19.219-13.249,17.565-15.752,12.983,11.869c-2.512,15.168-6.783,29.974-11.259,44.646
			c-62.804,205.579-287.734,310.827-401.42,483.486c-4.051,6.165,5.634,11.596,9.782,5.714
			c90.257-128.075,211.46-228.212,319.618-340.208C425.6,144.696,469.901,92.505,521.313,46.886
			c3.839-3.405,100.057-68.659,100.588-64.467c3.741,29.735-7.89,60.761-19.715,87.374
			c-45.513,102.391-134.239,185.599-211.938,263.96C279.871,445.077,143.686,526.64,37.49,642.651
			c2.671,2.671,5.343,5.343,8.014,8.014c93.512-115.534,212.539-205.995,320.255-307.387
			c94.113-88.603,166.726-208.523,283.304-270.275c22.429-11.887,23.57-11.516,18.803,7.217
			c-4.033,15.858-11.808,30.584-19.555,44.868c-14.567,26.834-34.175,50.935-53.774,74.178
			c-39.295,46.601-84.225,88.319-127.403,131.25c-105.486,104.886-178.948,236.49-278.403,346.718
			c2.972,2.291,5.935,4.581,8.897,6.863c28.107-49.44,48.928-101.808,74.019-152.681c30.346-61.521,78.141-110.971,127.687-157.403
			c60.946-57.126,128.12-107.504,197.053-154.502c29.487-20.103,59.744-39.074,90.257-57.568
			c3.281-1.99,43.939-24.923,44.054-24.481c4.44,16.398,2.574,35.068,0.301,51.554c-14.929,108.352-94.67,210.991-157.111,297.242
			C479.259,616.968,348.884,716.564,248.43,842.464c3.157,1.84,6.314,3.68,9.463,5.51c33.317-100.87,105.125-180.019,176.181-256.39
			c67.668-72.728,133.585-150.169,212.663-210.867c4.581-3.529,50.085-29.85,50.032-31.593c0.708,23.429-8.058,47.079-17.229,68.164
			c-17.707,40.693-46.99,76.619-75.522,110.033c-51.97,60.849-110.988,115.648-164.762,174.924
			c-64.299,70.853-130.879,145.277-218.015,188.138c-3.944,1.945,3.379-50.767,5.324-59.275
			c4.892-21.386,12.675-42.081,20.608-62.477c18.122-46.548,43.107-90.522,68.747-133.249
			c42.144-70.233,87.205-139.927,133.727-207.33c52.235-75.69,113.554-154.335,195.646-199.193
			c-2.582-2.583-5.165-5.165-7.747-7.748c-62.609,106.504-144.915,204.429-231.21,292.643
			c-83.332,85.188-160.888,179.399-268.197,235.614c2.769,2.131,5.546,4.263,8.313,6.395
			c24.331-131.463,81.386-258.478,161.021-365.76c72.621-97.836,161.162-182.494,220.473-289.989
			c3.564-6.474-5.679-11.657-9.782-5.713c-70.693,102.427-163.488,179.921-249.518,268.223
			c-36.475,37.438-72.224,75.47-114.084,107.035c-20.032,15.105-42.09,26.913-66.183,34.016
			c-37.729,11.126-32.919-50.21-33.573-75.354c-4.971-191.887,193.003-292.377,309.085-411.59c-3.157-1.84-6.314-3.679-9.463-5.51
			c-26.092,96.66-54.862,192.666-106.876,279.014C181.875,399.184,77.918,470.974-41.817,509.88
			c1.831,3.148,3.671,6.306,5.511,9.464c58.107-47.946,104.47-108.167,153.017-165.311c38.057-44.788,80.13-86.286,120.628-128.862
			c43.869-46.106,88.684-92.3,139.636-130.667c9.632-7.244,19.803-13.629,30.229-19.643c12.392-7.146,20.166-18.104,16.362-1.486
			c-6.031,26.347-27.957,50.572-44.894,70.357c-66.943,78.202-152.663,136.097-229.211,203.827
			c-49.379,43.7-95.033,93.45-154.503,123.725c-18.255,9.295-38.385,13.479-58.709,10.542c-33.44-4.829-13.408-53.499-6.253-69.959
			c13.541-31.105,36.73-58.055,56.692-85.136c4.334-5.891-5.501-11.524-9.782-5.714c-21.73,29.487-119.195,150.655-43.673,171.723
			C8.313,513.683,93.759,414.219,140.802,370.74c57.815-53.429,121.885-99.641,180.125-152.707
			c41.1-37.447,115.145-97.111,115.764-159.208c0.036-3.626-3.652-6.509-7.164-5.457C340.844,79.955,267.71,176.509,206.808,240.932
			c-36.227,38.313-73.099,75.672-107.265,115.888C53.977,410.451,10.215,466.348-44.32,511.33c-4.413,3.645,0.31,11.153,5.511,9.464
			c116.764-37.942,214.821-104.956,284.488-206.781c61.256-89.541,91.725-196.354,119.664-299.886
			c1.469-5.422-5.466-9.605-9.463-5.51c-73.975,75.991-164.223,133.665-232.616,215.555
			c-69.765,83.526-94.68,183.883-67.323,289.502c0.628,2.415,2.972,4.184,5.456,4.157c88.639-0.885,159.111-89.258,215.255-147.304
			c86.356-89.283,180.081-167.344,251.296-270.513c-3.264-1.902-6.519-3.812-9.782-5.713
			c-61.53,111.527-154.016,200.466-229.449,302.097c-76.469,103.011-129.89,230.529-153.177,356.357
			c-0.901,4.892,3.697,8.81,8.314,6.395c103.735-54.349,181.407-144.216,261.139-227.707
			c89.347-93.538,176.561-192.736,242.336-304.618c2.937-5.006-2.839-10.427-7.747-7.748
			C519.465,284.72,440.627,415.908,370.623,528.824C301.283,640.671,206.1,762.033,206.976,900.279
			c0.026,4.661,4.696,6.554,8.517,4.892c126.369-55.207,210.09-176.517,303.946-272.222
			c75.213-76.689,191.888-175.499,188.359-293.704c-0.133-4.387-4.679-6.916-8.518-4.891
			c-102.4,54.154-175.994,147.4-254.674,229.759c-79.131,82.819-161.003,169.945-197.628,280.854
			c-1.707,5.165,5.882,9.985,9.464,5.51C364.777,714.681,502.387,606.47,603.496,464.349
			c39.932-56.135,77.149-114.41,106.628-176.772c23.137-48.926,43.982-106.928,29.31-161.179c-0.964-3.573-5.147-5.174-8.313-3.388
			c-130.207,73.656-253.984,160.251-362,264.076c-42.666,41.011-79.98,85.958-107.247,138.617
			c-26.074,50.36-45.894,103.223-74.028,152.681c-3.113,5.483,4.493,11.736,8.897,6.863
			c104.665-116.029,182.982-252.489,294.466-362.655c72.576-71.718,180.699-158.871,192.71-267.701
			c0.389-3.547-3.927-6.598-7.164-5.457C554.958,92.399,478.277,211.639,392.743,301.205
			C279.031,420.277,141.678,513.939,37.49,642.651c-4.492,5.555,2.99,13.488,8.014,8.014
			c120.46-131.604,274.069-227.106,398.396-355.306c48.997-50.536,95.802-103.505,135.177-161.976
			c30.929-45.911,60.292-102.135,53.11-159.181c-0.415-3.272-3.369-6.934-7.163-5.457
			C510.789,13.118,435.895,119.551,352.519,203.865C248.182,309.369,134.531,406.516,48.546,528.523
			c3.264,1.902,6.519,3.813,9.782,5.714C187.482,338.078,452.187,222.703,476.977-33.492c0.416-4.246-5.12-7.093-8.517-4.891
			C259.272,97.732,104.434,296.403-89.859,450.525c2.671,2.671,5.342,5.342,8.013,8.013
			c62.742-61.672,133.515-113.164,202.846-166.99c62.557-48.582,118.108-101.277,172.899-158.244
			c77.645-80.749,189.871-179.01,202.979-297.445c0.486-4.422-5.121-6.846-8.518-4.891
			C369.173-100.293,280.172,7.104,178.249,97.423C94.254,171.857-17.637,250.112-55.499,360.799
			c-1.513,4.422,4.343,9.429,8.313,6.395c77.017-58.824,146.657-130.861,215.484-198.732
			c49.104-48.415,97.111-98.128,141.696-150.762c27.099-31.981,57.355-67.138,71.259-107.326c1.327-3.839-2.998-8.526-6.96-6.961
			C303.512-68.648,238.877-29.91,176.577,13.48C128.854,46.718,72.09,81.794,36.252,128.298
			c-62.582,81.236-85.87,206.976-173.005,267.524c-27.161,18.883-10.276-2.856-2.821-21.686
			c11.852-29.938,26.533-58.824,41.374-87.365C-69.261,231.141-36.926,175.97,2.024,126.698
			C71.082,39.333,199.422,4.362,242.893-105.618c1.945-4.926-4.352-8.535-8.313-6.395C160.33-71.717,102.32-5.835,42.559,52.44
			c-75.001,73.143-189.747,115.004-244.733,207.091c-2.564,4.307,1.637,9.596,6.395,8.313
			c145.525-39.163,263.784-121.76,383.219-209.965c76.389-56.418,188.598-132.515,194.02-237.392c0.15-2.821-2.698-6.005-5.661-5.66
			C256.345-171.137,153.255-88.416,61.335-17.156c-108.008,83.729-227.92,158.739-311.269,269.011
			c-4.423,5.846,5.403,11.392,9.781,5.713C-164.523,159.431-71.384,67.334,18.847-17.439
			c56.374-52.969,143.182-126.492,139.75-212.026c-0.168-4.298-4.67-7.031-8.518-4.891C31.229-167.988-57.666-59.503-161.915,26.128
			c-92.202,75.734-212.105,135.788-275.068,241.098c-2.397,4.016,1.601,10.101,6.394,8.313
			c227.514-84.64,408.47-250.809,606.186-385.827c6.067-4.148,0.876-12.895-5.714-9.782C69.825-72.717-36.307-39.736-135.779,8.952
			c-104.17,51.006-203.863,116.658-317.717,144.234c1.45,3.449,2.909,6.898,4.36,10.348
			c62.22-38.844,126.076-74.965,188.376-113.677c57.789-35.908,112.271-76.468,170.546-111.687
			c99.102-59.885,206.499-116.746,278.996-209.745c3.759-4.838-0.875-12.285-6.863-8.897
			C80.067-222.85-8.094-145.842-102.657-77.634C-189.412-15.069-281.208,43.03-352.529,123.894
			C-357.331,129.351-349.354,137.391-344.516,131.907L-344.516,131.907z"/>
		<use xlink:href="#SVGID_1_"  overflow="visible" fill="none" stroke="#2B373A" stroke-width="10" stroke-miterlimit="10"/>
	</g>
</g>
</svg>
